<svg width="57" height="50" viewBox="0 0 57 50" fill="none" xmlns="http://www.w3.org/2000/svg">
<path d="M28.3767 2.07617L2.38965 21.9512L28.3767 47.4319M28.3767 2.07617L53.6104 21.9512L28.3767 47.4319M28.3767 2.07617L53.6104 37.2396L28.3767 17.8742L2.38965 37.2396L28.3767 2.07617ZM28.3767 47.4319L53.6104 7.17232L28.3767 32.6531L2.38965 7.17232L28.3767 47.4319Z" stroke="#555555"/>
<circle cx="2.5" cy="6.57617" r="2.5" fill="#555555"/>
<circle cx="53.7208" cy="6.57617" r="2.5" fill="#555555"/>
<circle cx="28.1104" cy="2.5" r="2.5" fill="#555555"/>
<circle cx="2.5" cy="21.8652" r="2.5" fill="#555555"/>
<circle cx="53.7208" cy="21.8652" r="2.5" fill="#555555"/>
<circle cx="28.1104" cy="16.7686" r="2.5" fill="#555555"/>
<circle cx="2.5" cy="37.1533" r="2.5" fill="#555555"/>
<circle cx="53.7208" cy="37.1533" r="2.5" fill="#555555"/>
<circle cx="28.1104" cy="32.0586" r="2.5" fill="#555555"/>
<circle cx="28.1104" cy="47.3457" r="2.5" fill="#555555"/>
<path d="M28.3766 17.3646L53.987 6.66271L28.3766 2.07617L2.76624 6.66271L28.3766 17.3646ZM28.3766 17.3646L2.76624 22.4608L28.3766 33.1627M28.3766 17.3646L53.987 22.4608L28.3766 33.1627M28.3766 33.1627L53.987 37.2396L28.3766 46.9223L2.76624 37.2396L28.3766 33.1627Z" stroke="#555555"/>
</svg>
