<svg width="29" height="29" viewBox="0 0 29 29" fill="none" xmlns="http://www.w3.org/2000/svg">
<circle cx="14.5" cy="14.5" r="14.5" fill="#555555"/>
<circle cx="14.5" cy="14.5" r="8.62963" stroke="#F5F6F0"/>
<line x1="6.23999" y1="14.4348" x2="23.6298" y2="14.4348" stroke="#F5F6F0"/>
<line x1="14.4348" y1="23.6296" x2="14.4348" y2="5.37038" stroke="#F5F6F0"/>
<path d="M14.0652 6.23999C14.0652 6.23999 18.4126 8.0469 18.4126 14.5001C18.4126 20.9534 14.0652 22.7603 14.0652 22.7603" stroke="#F5F6F0"/>
<path d="M14.9348 6.23999C14.9348 6.23999 10.5874 8.0469 10.5874 14.5001C10.5874 20.9534 14.9348 22.7603 14.9348 22.7603" stroke="#F5F6F0"/>
<path d="M21.0212 20.1519C21.0212 20.1519 19.5947 17.5434 14.5001 17.5434C9.40542 17.5434 7.97891 20.1519 7.97891 20.1519" stroke="#F5F6F0"/>
<path d="M7.97876 8.84814C7.97876 8.84814 9.40526 11.4566 14.4999 11.4566C19.5946 11.4566 21.0211 8.84814 21.0211 8.84814" stroke="#F5F6F0"/>
</svg>
