<svg width="65" height="56" viewBox="0 0 65 56" fill="none" xmlns="http://www.w3.org/2000/svg">
<rect x="18.0928" y="10.3867" width="46.9073" height="30.8248" fill="#D9D9D9"/>
<path d="M1.5 44.703V5.70664L40.0464 1.66548V53.4071L1.5 44.703Z" fill="#555555" stroke="#F5F6F0" stroke-width="3"/>
<path d="M41.5464 17.0869H55.6186V24.4581" stroke="#555555" stroke-width="3"/>
<path d="M55.6186 27.1396L59.1005 23.4541H52.1366L55.6186 27.1396Z" fill="#555555"/>
<rect x="46.2373" y="30.5303" width="5.74351" height="5.74351" transform="rotate(-45 46.2373 30.5303)" fill="#555555"/>
<path d="M15.0463 32.3271V17.7817H20.2309C21.3625 17.7817 22.3 17.9877 23.0434 18.3996C23.7868 18.8115 24.3431 19.375 24.7124 20.0899C25.0818 20.8002 25.2664 21.6003 25.2664 22.4905C25.2664 23.3854 25.0794 24.1903 24.7053 24.9053C24.336 25.6155 23.7773 26.1789 23.0292 26.5956C22.2858 27.0075 21.3507 27.2135 20.2238 27.2135H16.6585V25.3527H20.0249C20.7399 25.3527 21.3199 25.2296 21.765 24.9834C22.2101 24.7325 22.5368 24.3915 22.7451 23.9607C22.9535 23.5298 23.0576 23.0397 23.0576 22.4905C23.0576 21.9413 22.9535 21.4536 22.7451 21.0274C22.5368 20.6013 22.2077 20.2675 21.7579 20.026C21.3128 19.7845 20.7257 19.6638 19.9965 19.6638H17.2409V32.3271H15.0463Z" fill="#F5F6F0"/>
</svg>
