<svg width="57" height="70" viewBox="0 0 57 70" fill="none" xmlns="http://www.w3.org/2000/svg">
<path d="M28.3146 20.1232C35.9849 20.1232 42.8587 21.4215 47.7591 23.4633C50.2126 24.4856 52.1002 25.6647 53.3514 26.8974C54.5974 28.1248 55.1292 29.3146 55.1292 30.421C55.1292 31.5274 54.5974 32.7172 53.3514 33.9446C52.1002 35.1773 50.2126 36.3564 47.7591 37.3787C42.8587 39.4205 35.9849 40.7188 28.3146 40.7188C20.6443 40.7188 13.7705 39.4205 8.87008 37.3787C6.4166 36.3564 4.52904 35.1773 3.27778 33.9446C2.0318 32.7172 1.5 31.5274 1.5 30.421C1.5 29.3146 2.0318 28.1248 3.27778 26.8974C4.52904 25.6647 6.4166 24.4856 8.87008 23.4633C13.7705 21.4215 20.6443 20.1232 28.3146 20.1232Z" stroke="#555555" stroke-width="3"/>
<path d="M37.2325 25.2713C41.0677 31.914 43.3802 38.516 44.0622 43.7808C44.4036 46.4167 44.3262 48.6409 43.8844 50.3409C43.4444 52.0336 42.6799 53.0891 41.7217 53.6423C40.7635 54.1955 39.4672 54.3298 37.7813 53.8645C36.0881 53.3972 34.1232 52.3521 32.0112 50.7384C27.7927 47.5155 23.2314 42.2117 19.3963 35.569C15.5611 28.9263 13.2485 22.3243 12.5666 17.0595C12.2252 14.4236 12.3026 12.1994 12.7444 10.4994C13.1844 8.80667 13.9489 7.75121 14.9071 7.19801C15.8653 6.64481 17.1616 6.51046 18.8475 6.9758C20.5407 7.44311 22.5056 8.48823 24.6176 10.1019C28.8361 13.3248 33.3974 18.6286 37.2325 25.2713Z" stroke="#555555" stroke-width="3"/>
<path d="M37.2324 35.5689C33.3972 42.2116 28.836 47.5154 24.6175 50.7383C22.5054 52.352 20.5405 53.3971 18.8474 53.8644C17.1614 54.3297 15.8651 54.1954 14.9069 53.6422C13.9488 53.089 13.1843 52.0335 12.7443 50.3408C12.3024 48.6408 12.2251 46.4166 12.5665 43.7807C13.2484 38.5159 15.561 31.9139 19.3961 25.2712C23.2313 18.6285 27.7925 13.3247 32.011 10.1018C34.1231 8.48813 36.088 7.44301 37.7811 6.9757C39.4671 6.51036 40.7634 6.64472 41.7215 7.19792C42.6797 7.75111 43.4442 8.80657 43.8842 10.4993C44.3261 12.1993 44.4034 14.4235 44.062 17.0594C43.3801 22.3242 41.0675 28.9262 37.2324 35.5689Z" stroke="#555555" stroke-width="3"/>
<circle cx="28.7078" cy="30.2813" r="5.11236" fill="#555555"/>
<path d="M1.57 63.75V67H0.86V59.84H3.86C4.60667 59.84 5.16333 59.99 5.53 60.29C5.91667 60.6033 6.11 61.08 6.11 61.72C6.11 62.5267 5.73667 63.1033 4.99 63.45C5.29667 63.59 5.51667 63.78 5.65 64.02C5.79 64.26 5.87333 64.6033 5.9 65.05L5.96 65.98C5.98 66.2333 6.02 66.43 6.08 66.57C6.14 66.71 6.25 66.8533 6.41 67H5.46C5.36 66.7533 5.29667 66.4833 5.27 66.19L5.2 65.37C5.15333 64.75 5.03 64.3267 4.83 64.1C4.63 63.8667 4.28667 63.75 3.8 63.75H1.57ZM1.57 63.18H3.73C4.33 63.18 4.75667 63.0667 5.01 62.84C5.27667 62.6 5.41 62.26 5.41 61.82C5.41 61.38 5.27667 61.0367 5.01 60.79C4.75667 60.5633 4.33 60.45 3.73 60.45H1.57V63.18ZM11.9243 64.51H8.0443C8.0643 65.2033 8.2443 65.73 8.5843 66.09C8.87763 66.41 9.2643 66.57 9.7443 66.57C10.4976 66.57 11.0076 66.17 11.2743 65.37H11.9243C11.5576 66.55 10.8243 67.14 9.7243 67.14C8.95763 67.14 8.3643 66.8667 7.9443 66.32C7.57763 65.8333 7.3943 65.2033 7.3943 64.43C7.3943 63.5433 7.6343 62.8433 8.1143 62.33C8.5343 61.89 9.06763 61.67 9.7143 61.67C10.441 61.67 11.0043 61.9333 11.4043 62.46C11.7576 62.92 11.9343 63.5233 11.9343 64.27C11.9343 64.3167 11.931 64.3967 11.9243 64.51ZM11.2643 63.99C11.2376 63.4433 11.0876 63.0167 10.8143 62.71C10.541 62.3967 10.1776 62.24 9.7243 62.24C9.27096 62.24 8.90096 62.3933 8.6143 62.7C8.32763 63 8.14763 63.43 8.0743 63.99H11.2643ZM13.8119 63.39H13.1319C13.1585 62.2433 13.8485 61.67 15.2019 61.67C16.4752 61.67 17.1119 62.19 17.1119 63.23V66.14C17.1119 66.3933 17.1952 66.52 17.3619 66.52C17.4285 66.52 17.5385 66.4767 17.6919 66.39V66.95C17.4852 67.0233 17.3119 67.06 17.1719 67.06C16.7052 67.06 16.4719 66.8233 16.4719 66.35V66.23C16.0719 66.8367 15.4452 67.14 14.5919 67.14C14.0252 67.14 13.5885 66.99 13.2819 66.69C13.0152 66.43 12.8819 66.0833 12.8819 65.65C12.8819 65.1767 13.0385 64.8033 13.3519 64.53C13.5919 64.3233 13.9785 64.18 14.5119 64.1L16.4419 63.79C16.4485 63.7433 16.4519 63.6967 16.4519 63.65C16.4519 63.09 16.3619 62.7167 16.1819 62.53C16.0085 62.3367 15.6719 62.24 15.1719 62.24C14.7185 62.24 14.3819 62.3333 14.1619 62.52C13.9485 62.7 13.8319 62.99 13.8119 63.39ZM16.4719 64.3L14.6219 64.64C13.9152 64.76 13.5619 65.09 13.5619 65.63C13.5619 65.93 13.6652 66.17 13.8719 66.35C14.0785 66.5233 14.3552 66.61 14.7019 66.61C15.3685 66.61 15.8719 66.36 16.2119 65.86C16.3852 65.6067 16.4719 65.2867 16.4719 64.9V64.3ZM22.8497 63.42H22.1997C22.133 63.0467 21.973 62.7567 21.7197 62.55C21.4664 62.3433 21.1464 62.24 20.7597 62.24C20.1997 62.24 19.7664 62.4567 19.4597 62.89C19.193 63.27 19.0597 63.7633 19.0597 64.37C19.0597 65.09 19.2364 65.65 19.5897 66.05C19.8964 66.3967 20.293 66.57 20.7797 66.57C21.6064 66.57 22.0997 66.1067 22.2597 65.18H22.8797C22.773 65.8467 22.513 66.3533 22.0997 66.7C21.733 66.9933 21.283 67.14 20.7497 67.14C19.9897 67.14 19.3964 66.8633 18.9697 66.31C18.603 65.8233 18.4197 65.1933 18.4197 64.42C18.4197 63.5333 18.6664 62.8367 19.1597 62.33C19.5864 61.89 20.1297 61.67 20.7897 61.67C21.3897 61.67 21.8797 61.8467 22.2597 62.2C22.5864 62.5133 22.783 62.92 22.8497 63.42ZM25.842 61.81V62.33H24.882V65.99C24.882 66.1633 24.9086 66.2833 24.962 66.35C25.022 66.41 25.1253 66.44 25.272 66.44C25.4386 66.44 25.622 66.4067 25.822 66.34L25.932 66.94C25.572 67.0267 25.2786 67.07 25.052 67.07C24.7386 67.07 24.5186 66.9933 24.392 66.84C24.2653 66.6867 24.202 66.4233 24.202 66.05V62.33H23.462V61.81H24.202V60.74L24.882 60.3V61.81H25.842ZM34.3285 67H33.5985L29.4285 60.71C29.4552 61.17 29.4718 62.13 29.4785 63.59V67H28.8385V59.84H29.5785L33.7385 66.11C33.7052 65.35 33.6885 64.3667 33.6885 63.16V59.84H34.3285V67ZM36.5755 63.39H35.8955C35.9222 62.2433 36.6122 61.67 37.9655 61.67C39.2389 61.67 39.8755 62.19 39.8755 63.23V66.14C39.8755 66.3933 39.9589 66.52 40.1255 66.52C40.1922 66.52 40.3022 66.4767 40.4555 66.39V66.95C40.2489 67.0233 40.0755 67.06 39.9355 67.06C39.4689 67.06 39.2355 66.8233 39.2355 66.35V66.23C38.8355 66.8367 38.2089 67.14 37.3555 67.14C36.7889 67.14 36.3522 66.99 36.0455 66.69C35.7789 66.43 35.6455 66.0833 35.6455 65.65C35.6455 65.1767 35.8022 64.8033 36.1155 64.53C36.3555 64.3233 36.7422 64.18 37.2755 64.1L39.2055 63.79C39.2122 63.7433 39.2155 63.6967 39.2155 63.65C39.2155 63.09 39.1255 62.7167 38.9455 62.53C38.7722 62.3367 38.4355 62.24 37.9355 62.24C37.4822 62.24 37.1455 62.3333 36.9255 62.52C36.7122 62.7 36.5955 62.99 36.5755 63.39ZM39.2355 64.3L37.3855 64.64C36.6789 64.76 36.3255 65.09 36.3255 65.63C36.3255 65.93 36.4289 66.17 36.6355 66.35C36.8422 66.5233 37.1189 66.61 37.4655 66.61C38.1322 66.61 38.6355 66.36 38.9755 65.86C39.1489 65.6067 39.2355 65.2867 39.2355 64.9V64.3ZM43.2834 61.81V62.33H42.3234V65.99C42.3234 66.1633 42.35 66.2833 42.4034 66.35C42.4634 66.41 42.5667 66.44 42.7134 66.44C42.88 66.44 43.0634 66.4067 43.2634 66.34L43.3734 66.94C43.0134 67.0267 42.72 67.07 42.4934 67.07C42.18 67.07 41.96 66.9933 41.8334 66.84C41.7067 66.6867 41.6434 66.4233 41.6434 66.05V62.33H40.9034V61.81H41.6434V60.74L42.3234 60.3V61.81H43.2834ZM45.014 61.81V67H44.364V61.81H45.014ZM44.694 59.97C44.794 59.97 44.8807 60.0067 44.954 60.08C45.0273 60.1533 45.064 60.2433 45.064 60.35C45.064 60.45 45.0273 60.54 44.954 60.62C44.8807 60.6933 44.794 60.73 44.694 60.73C44.5873 60.73 44.4973 60.6933 44.424 60.62C44.3507 60.54 44.314 60.45 44.314 60.35C44.314 60.2433 44.3507 60.1533 44.424 60.08C44.4973 60.0067 44.5873 59.97 44.694 59.97ZM48.5308 67H47.8508L45.8708 61.81H46.6208L47.6108 64.56C47.7241 64.8733 47.8374 65.1833 47.9508 65.49C48.0508 65.7567 48.1408 66 48.2208 66.22C48.3074 66.0067 48.3974 65.7633 48.4908 65.49C48.5641 65.2833 48.6774 64.9733 48.8308 64.56L49.8108 61.81H50.5308L48.5308 67ZM55.6352 64.51H51.7552C51.7752 65.2033 51.9552 65.73 52.2952 66.09C52.5886 66.41 52.9752 66.57 53.4552 66.57C54.2086 66.57 54.7186 66.17 54.9852 65.37H55.6352C55.2686 66.55 54.5352 67.14 53.4352 67.14C52.6686 67.14 52.0752 66.8667 51.6552 66.32C51.2886 65.8333 51.1052 65.2033 51.1052 64.43C51.1052 63.5433 51.3452 62.8433 51.8252 62.33C52.2452 61.89 52.7786 61.67 53.4252 61.67C54.1519 61.67 54.7152 61.9333 55.1152 62.46C55.4686 62.92 55.6452 63.5233 55.6452 64.27C55.6452 64.3167 55.6419 64.3967 55.6352 64.51ZM54.9752 63.99C54.9486 63.4433 54.7986 63.0167 54.5252 62.71C54.2519 62.3967 53.8886 62.24 53.4352 62.24C52.9819 62.24 52.6119 62.3933 52.3252 62.7C52.0386 63 51.8586 63.43 51.7852 63.99H54.9752Z" fill="#555555"/>
</svg>
